<svg width="115" height="24" viewBox="0 0 115 24" fill="none" xmlns="http://www.w3.org/2000/svg">
<path fill-rule="evenodd" clip-rule="evenodd" d="M75.2997 0.141956C75.2679 0.20968 74.3516 0.270694 73.2635 0.278041C71.8632 0.287306 71.2848 0.400072 71.2831 0.66362C71.2813 0.93771 71.2516 0.940265 71.1701 0.673842C71.1 0.445114 70.6708 0.346724 70.0041 0.406461C68.7712 0.516672 67.8951 0.562035 67.6299 0.529132C67.3921 0.499742 62.3163 0.854013 62.3163 0.900014C62.3163 0.918862 61.9433 0.975406 61.4873 1.02588C60.3557 1.1511 60.3884 1.12715 60.4933 1.75455C60.5647 2.18166 60.524 2.15354 60.321 1.63635C60.117 1.1166 59.9325 0.991378 59.5276 1.09808C59.2375 1.17442 58.7458 1.25173 58.4348 1.26994C58.0723 1.29102 57.8695 1.45554 57.8695 1.72835C57.8695 2.23373 57.6163 2.30049 57.5398 1.81525C57.5106 1.62869 57.2845 1.48557 57.0374 1.49707C55.5287 1.56671 55.2204 1.64114 55.1208 1.95932C55.0434 2.20657 55.0094 2.19316 55.0077 1.91428C55.0062 1.63412 54.6976 1.51496 53.9754 1.51496C53.4088 1.51496 52.9019 1.60696 52.8488 1.71941C52.7957 1.83186 52.1571 1.97305 51.4294 2.03343C48.5081 2.27494 47.9219 2.39281 47.7 2.78318C47.5726 3.00712 47.4684 3.05983 47.4684 2.90042C47.4684 2.7407 47.3405 2.61036 47.1841 2.61036C47.0143 2.61036 46.9297 2.77584 46.9742 3.02086C47.075 3.57862 46.9371 3.53773 46.6477 2.92438C46.4326 2.46852 46.3415 2.46501 45.7529 2.8902C45.3908 3.15151 45.0102 3.24895 44.9024 3.10775C44.7949 2.96687 44.6332 2.91065 44.5427 2.98284C44.4523 3.05472 44.0052 3.17675 43.5492 3.25374C41.7961 3.55019 40.9028 3.76869 40.6851 3.95493C40.5608 4.06099 40.1098 4.12073 39.6829 4.08751C39.256 4.05428 38.8675 4.16162 38.8197 4.3255C38.7718 4.4897 38.5693 4.55774 38.3695 4.4766C38.1697 4.39578 37.6158 4.50152 37.1382 4.7114C36.6608 4.9216 35.9578 5.14777 35.5759 5.21421C35.1941 5.28066 34.6781 5.40876 34.4294 5.49885C34.1807 5.58893 33.5702 5.74163 33.0728 5.83842C31.515 6.14062 29.0724 6.91817 28.8757 7.17437C28.8058 7.2651 28.3988 7.38489 27.9713 7.44015C27.0043 7.56538 26.6206 7.74619 26.0555 8.34357C25.8017 8.61191 25.6111 8.67484 25.6111 8.49019C25.6111 8.10749 24.355 8.47805 24.2824 8.88216C24.2563 9.02719 24.1376 9.0668 24.0186 8.97001C23.88 8.85724 23.8022 9.00068 23.8022 9.36837C23.8022 9.91399 23.7921 9.91335 23.599 9.35367C23.4664 8.96969 23.3247 8.85788 23.1913 9.03262C23.0788 9.17989 22.7802 9.34792 22.5277 9.40638C22.2752 9.46452 22.0473 9.64629 22.0209 9.81017C21.9929 9.98555 21.834 9.99609 21.6352 9.83573C21.3275 9.58783 20.09 10.0558 19.4308 10.6695C19.3064 10.7851 19.113 10.8474 19.0012 10.8081C18.8744 10.7634 18.8411 10.8854 18.9128 11.1314C18.997 11.4202 18.9504 11.4579 18.7395 11.271C18.3212 10.9005 17.4984 11.0522 17.0073 11.5905C16.7732 11.847 16.3674 12.0569 16.1056 12.0569C15.8436 12.0569 15.0771 12.3418 14.4022 12.69C13.7272 13.0379 12.9886 13.4002 12.7605 13.4947C12.5144 13.5966 12.346 13.8742 12.346 14.1784C12.346 14.6039 12.3065 14.6214 12.1136 14.2819C11.9373 13.972 11.8386 13.9627 11.7066 14.2426C11.6105 14.4461 11.3721 14.6125 11.1767 14.6125C10.4985 14.6125 9.48193 15.3172 9.48193 15.7874C9.48193 16.0532 9.40867 16.1513 9.30828 16.02C9.21286 15.8951 9.04328 16.0577 8.93143 16.3816C8.81973 16.7059 8.72823 16.7995 8.72823 16.5902C8.72823 16.381 8.55865 16.2098 8.35138 16.2098C8.14411 16.2098 7.97453 16.3688 7.97453 16.5634C7.97453 16.7579 7.86736 16.8298 7.73651 16.7234C7.30932 16.3759 6.76906 16.864 6.76379 17.6019C6.75912 18.2725 6.75459 18.2737 6.53768 17.6661C6.31865 17.0521 6.31639 17.0521 6.31413 17.6661C6.31232 18.1242 6.27871 18.1757 6.18525 17.8632C6.08184 17.5179 5.951 17.5387 5.47149 17.9773C5.14861 18.2728 4.57911 18.7024 4.20603 18.9324C2.65491 19.8879 2.09612 20.5252 2.2045 21.2146C2.23631 21.4165 2.18038 21.689 2.08029 21.8203C1.96467 21.9717 1.93754 21.9241 2.00598 21.6899C2.34771 20.5176 1.21655 20.7872 0.714135 21.9976C0.566862 22.3525 0.440391 22.4573 0.407982 22.2512C0.377683 22.0583 0.256337 22.2825 0.138308 22.7496C-0.0452935 23.4763 -0.0457456 23.6386 0.134841 23.875C0.439788 24.2743 0.887788 23.661 0.900299 22.8272C0.909645 22.2075 0.924418 22.1918 1.01923 22.7023C1.14781 23.3933 1.33488 23.4552 1.51125 22.8655C1.59808 22.5752 1.63953 22.5605 1.64119 22.8195C1.64285 23.0952 1.75756 23.0738 2.05798 22.7416C2.28605 22.4895 2.5913 22.2825 2.73631 22.2813C2.88133 22.2803 3.00011 22.0682 3.00011 21.8101C3.00011 21.5245 3.08844 21.413 3.22622 21.5248C3.35058 21.6261 3.57096 21.6024 3.71612 21.4727C3.86114 21.3427 4.14845 21.1897 4.35451 21.1328C4.90245 20.9811 5.43321 20.3016 5.35226 19.855C5.31156 19.6304 5.38859 19.502 5.53541 19.5499C5.67484 19.5953 5.83493 19.4014 5.8913 19.119C5.98039 18.6724 5.99516 18.6794 6.00436 19.1723C6.0128 19.626 6.11244 19.7093 6.50482 19.5908C7.80977 19.1966 9.01162 18.1632 8.91018 17.523C8.86104 17.2128 8.90249 17.162 9.0478 17.3543C9.33089 17.7287 9.6583 17.8118 9.85019 17.5575C9.93777 17.4416 10.1452 17.3298 10.311 17.3093C10.5665 17.2774 11.6591 16.7975 13.2504 16.0181C13.4577 15.9168 13.7969 15.7533 14.0041 15.6545C14.2114 15.5562 14.4309 15.3175 14.4918 15.1239C14.5672 14.8847 14.6032 14.9057 14.6048 15.1904C14.606 15.4204 14.6808 15.5121 14.771 15.3939C14.8611 15.276 14.9019 14.9128 14.8618 14.5873C14.7811 13.9333 15.0121 13.9062 15.3303 14.5326C15.5798 15.0239 15.7955 15.031 16.6507 14.5745C17.0191 14.378 17.3204 14.0314 17.3204 13.8043C17.3204 13.3845 17.6786 13.3484 17.8675 13.7487C17.9244 13.8694 18.0621 13.8078 18.1733 13.6123C18.3227 13.3494 18.3756 13.3532 18.3756 13.6263C18.3756 13.8793 18.4588 13.9017 18.6394 13.6969C18.9461 13.3494 19.6869 13.0347 20.6091 12.8613C20.967 12.7935 21.3476 12.5843 21.4548 12.3955C21.5621 12.207 21.9475 11.9959 22.3114 11.9269C22.6755 11.8575 23.0241 11.7866 23.0862 11.769C23.1483 11.7518 23.2041 11.486 23.2098 11.1784C23.2186 10.7209 23.2391 10.7062 23.3229 11.0985C23.4254 11.5774 24.1102 11.7122 24.5559 11.341C24.8736 11.0765 26.1153 10.7244 27.2569 10.5753C27.789 10.5056 28.3048 10.3072 28.4031 10.1344C28.5014 9.96159 28.7444 9.83285 28.9431 9.8485C29.524 9.89387 32.1587 9.14922 32.2425 8.91602C32.2845 8.79847 32.4886 8.70455 32.6959 8.70678C32.9032 8.70934 33.1915 8.50745 33.3366 8.25795C33.5384 7.91135 33.6003 7.90049 33.6003 8.21131C33.6003 8.48572 33.7102 8.54482 33.9395 8.39404C34.1261 8.27105 34.4941 8.18608 34.7573 8.20524C35.0205 8.22441 35.279 8.09216 35.3316 7.91167C35.3948 7.69508 35.5205 7.68837 35.7 7.89186C35.85 8.06181 36.0196 8.10142 36.0769 7.97971C36.1343 7.85832 36.4655 7.71776 36.8128 7.66793C37.8108 7.52417 38.9447 7.31237 39.027 7.25391C39.0684 7.22452 39.3227 7.2258 39.5923 7.25711C39.8731 7.28969 40.0822 7.15936 40.0822 6.95139C40.0822 6.75174 40.15 6.6773 40.2329 6.78592C40.3158 6.89453 40.3837 6.83096 40.3837 6.64504C40.3837 6.45912 40.4556 6.30674 40.5433 6.30674C40.631 6.30674 40.661 6.45049 40.6098 6.62619C40.5585 6.80189 40.6563 6.94564 40.827 6.94564C40.9976 6.94564 41.1374 6.83703 41.1374 6.70446C41.1374 6.57157 41.5953 6.44986 42.1549 6.43388C42.7144 6.41759 43.4437 6.29716 43.7753 6.16618C44.1069 6.03552 44.5346 5.94065 44.7257 5.95566C44.9408 5.97259 45.0344 5.84992 44.9713 5.63397C44.8982 5.38288 44.9567 5.38352 45.1793 5.63589C45.5329 6.03712 46.8655 6.11603 46.8655 5.73588C46.8655 5.34711 47.5063 5.33656 47.7253 5.72182C47.8546 5.94927 47.9207 5.95439 47.9207 5.73684C47.9207 5.55603 48.0563 5.48351 48.2221 5.57519C48.388 5.6672 48.5236 5.61768 48.5236 5.46562C48.5236 5.31324 48.9975 5.20751 49.5767 5.23083C50.3245 5.26086 50.6002 5.16821 50.5276 4.91137C50.4713 4.71236 50.5401 4.74718 50.6804 4.98804C50.8208 5.22923 50.9356 5.30111 50.9356 5.14777C50.9358 4.99475 51.3887 4.86442 51.9423 4.85835C52.6129 4.851 52.9698 4.71331 53.0119 4.44561C53.0604 4.13766 53.1245 4.13095 53.2866 4.4159C53.4029 4.62035 53.4991 4.6622 53.5003 4.50886C53.5017 4.35585 53.5647 4.43763 53.6403 4.69127C53.7505 5.06056 53.8532 5.07973 54.1556 4.78775C54.4435 4.50982 54.5508 4.51398 54.6072 4.80595C54.6553 5.05513 54.7245 5.07717 54.8056 4.86921C54.874 4.69351 55.2353 4.54017 55.6084 4.52867C55.9815 4.51717 56.4563 4.4274 56.6636 4.32933C56.8709 4.23126 57.1238 4.29164 57.2257 4.46382C57.3467 4.66795 57.5588 4.66731 57.8369 4.4619C58.0712 4.28908 58.5564 4.20347 58.9153 4.27183C59.2743 4.34051 59.7807 4.27183 60.0411 4.11977C60.3012 3.96739 60.6576 3.95525 60.8329 4.09294C61.1056 4.30665 61.1413 4.24212 61.0803 3.64762C61.0251 3.10998 61.0435 3.05631 61.1614 3.41155C61.3496 3.97857 62.2401 4.17152 62.2432 3.64634C62.2446 3.42975 62.3071 3.47384 62.3917 3.75112C62.4721 4.01467 62.5388 4.10476 62.5402 3.95174C62.5414 3.7984 62.6382 3.84121 62.7551 4.04694C62.9987 4.47532 63.2307 3.98273 63.0604 3.39845C63.0039 3.20454 63.1371 3.29527 63.3566 3.60002C63.7188 4.10284 64.0508 4.13095 66.9552 3.90382C68.715 3.76614 70.3074 3.6604 70.494 3.6687C70.6806 3.67669 70.8332 3.55498 70.8332 3.39781C70.8332 3.24064 70.939 3.11222 71.0682 3.11222C71.1973 3.11222 71.2647 3.24383 71.2178 3.40452C71.0954 3.8246 72.9212 3.60673 73.124 3.17707C73.2326 2.94674 73.3826 2.9263 73.5524 3.11893C73.6959 3.28185 74.0417 3.41985 74.3205 3.4256C74.5995 3.43167 75.1161 3.47129 75.4684 3.51377C75.9529 3.57255 76.1097 3.47448 76.1113 3.11222C76.1131 2.75795 76.1445 2.73591 76.2319 3.02757C76.3576 3.44733 77.0334 3.48247 81.2342 3.2892C84.0199 3.16078 83.7849 3.16429 85.7439 3.22403C86.8828 3.25885 87.3314 3.16237 87.3769 2.87263C87.4114 2.65317 87.5018 2.47332 87.5778 2.47332C87.6538 2.47332 87.699 2.65317 87.6784 2.87263C87.6325 3.35852 88.6411 3.42976 88.8066 2.95249C88.8757 2.75316 88.9182 2.77935 88.9197 3.02277C88.9211 3.26204 89.1253 3.39589 89.4496 3.37034C89.7397 3.34702 89.9771 3.21604 89.9771 3.07868C89.9771 2.94163 90.1298 2.90873 90.3163 3.0052C90.8219 3.26747 93.6998 3.20997 93.9109 2.93365C94.0266 2.78191 94.0547 2.82791 93.9873 3.05887C93.8352 3.58022 94.9972 3.37513 95.3099 2.82535C95.5167 2.4615 95.5545 2.46788 95.5545 2.86528C95.5545 3.19783 95.7074 3.32146 96.0773 3.28728C96.3648 3.26108 96.6396 3.15567 96.6878 3.05344C96.736 2.9509 97.0258 2.98668 97.3315 3.13299C97.6372 3.27897 98.1764 3.31475 98.5298 3.21189C99.0933 3.04833 99.1746 2.92278 99.1901 2.19028C99.2074 1.38207 99.211 1.3859 99.3037 2.30177C99.3969 3.22275 99.4263 3.25054 100.379 3.32466C100.917 3.3665 101.494 3.46138 101.66 3.53485C101.825 3.60865 102.031 3.55179 102.117 3.40867C102.283 3.13203 102.617 3.16493 102.865 3.48214C102.948 3.58788 103.22 3.61057 103.468 3.53262C103.717 3.45499 103.988 3.4125 104.071 3.43806C104.154 3.46362 104.9 3.53613 105.729 3.59875C106.559 3.66168 107.464 3.80256 107.742 3.91213C108.108 4.05652 108.326 3.96004 108.533 3.56233C108.72 3.20358 108.82 3.1496 108.82 3.40675C108.82 3.65912 109.003 3.76678 109.33 3.70672C109.611 3.65561 109.956 3.81501 110.096 4.06099C110.314 4.44561 110.369 4.44401 110.487 4.05013C110.582 3.73164 110.625 3.71343 110.626 3.99071C110.627 4.2105 110.769 4.39003 110.94 4.39003C111.188 4.39003 111.235 4.24244 111.168 3.67126C111.121 3.2761 111.123 3.13235 111.17 3.35181C111.218 3.57159 111.323 3.75112 111.404 3.75112C111.485 3.75112 111.507 3.57159 111.453 3.35181C111.4 3.13235 111.487 3.29335 111.647 3.71023C111.897 4.3584 111.952 4.3929 112.033 3.94982C112.148 3.31092 112.527 3.27067 112.638 3.88561C112.722 4.35169 112.982 4.38939 113.291 3.98081C113.508 3.69298 113.98 4.03991 114.141 4.60566C114.301 5.16949 115 5.15576 115 4.58873C115 3.91788 114.662 3.46522 114.009 3.2614C113.683 3.16014 113.214 2.95409 112.965 2.80395C112.716 2.65381 112.411 2.52954 112.287 2.52762C112.162 2.52603 111.891 2.42732 111.684 2.30816C111.091 1.96826 109.721 1.51241 108.895 1.38079C108.48 1.31466 107.836 1.17187 107.463 1.06325C107.09 0.954641 105.665 0.792679 104.297 0.702913C102.929 0.613467 101.471 0.478978 101.057 0.404546C99.1687 0.0646487 95.8076 -0.0500343 95.5717 0.217666C95.429 0.379629 95.23 0.404225 95.1294 0.272931C95.0291 0.141316 94.6055 0.126303 94.1882 0.239709C93.7711 0.353114 93.3992 0.341613 93.3622 0.214152C93.2943 -0.0180896 75.409 -0.0896462 75.2997 0.141956ZM95.4792 1.19551C95.5304 1.37121 95.5004 1.51496 95.4127 1.51496C95.325 1.51496 95.2531 1.37121 95.2531 1.19551C95.2531 1.01981 95.2829 0.876056 95.3195 0.876056C95.3562 0.876056 95.4279 1.01981 95.4792 1.19551ZM102.941 2.15386C102.852 2.50526 102.754 2.79277 102.723 2.79277C102.693 2.79277 102.703 2.50526 102.746 2.15386C102.79 1.80247 102.888 1.51496 102.964 1.51496C103.04 1.51496 103.03 1.80087 102.941 2.15386ZM90.4294 2.15386C90.4294 2.32956 90.3995 2.47332 90.3629 2.47332C90.3263 2.47332 90.2545 2.32956 90.2033 2.15386C90.152 1.97817 90.182 1.83441 90.2697 1.83441C90.3575 1.83441 90.4294 1.97817 90.4294 2.15386ZM68.1198 2.65189C68.1198 2.92566 68.052 3.06111 67.9691 2.95249C67.8862 2.84388 67.8184 2.61995 67.8184 2.45447C67.8184 2.28899 67.8862 2.15386 67.9691 2.15386C68.052 2.15386 68.1198 2.37812 68.1198 2.65189ZM113.265 4.39514C113.213 4.57371 113.107 4.63728 113.03 4.53602C112.953 4.43507 112.89 4.50471 112.89 4.69063C112.89 5.17907 113.124 5.10624 113.342 4.54975C113.445 4.28621 113.491 4.07058 113.445 4.07058C113.398 4.07058 113.317 4.21657 113.265 4.39514ZM42.0418 5.34838C42.0418 5.52408 42.0119 5.66784 41.9753 5.66784C41.9387 5.66784 41.8669 5.52408 41.8157 5.34838C41.7644 5.17269 41.7944 5.02893 41.8822 5.02893C41.9699 5.02893 42.0418 5.17269 42.0418 5.34838ZM4.38436 20.1125C4.27627 20.3415 4.20603 20.3604 4.20603 20.1604C4.20603 19.7339 4.38436 19.356 4.4849 19.5694C4.52771 19.6602 4.48249 19.9045 4.38436 20.1125Z" fill="#6966FF"/>
</svg>
